<svg width="1200" height="760" viewBox="0 0 1200 760" xmlns="http://www.w3.org/2000/svg">
  <defs>
    <linearGradient id="screenGradient" x1="0" y1="0" x2="1" y2="1">
      <stop offset="0%" stop-color="#2d5dbd" />
      <stop offset="100%" stop-color="#0e1841" />
    </linearGradient>
    <linearGradient id="baseGradient" x1="0" y1="0" x2="1" y2="1">
      <stop offset="0%" stop-color="#0f1727" />
      <stop offset="100%" stop-color="#121a2f" />
    </linearGradient>
    <filter id="glow" x="-50%" y="-50%" width="200%" height="200%">
      <feGaussianBlur stdDeviation="12" result="blur" />
      <feMerge>
        <feMergeNode in="blur" />
        <feMergeNode in="SourceGraphic" />
      </feMerge>
    </filter>
  </defs>
  <rect x="120" y="140" width="960" height="420" rx="32" fill="#121a2f" />
  <rect x="155" y="180" width="890" height="340" rx="24" fill="url(#screenGradient)" filter="url(#glow)" />
  <rect x="170" y="197" width="860" height="306" rx="16" fill="#09101f" />
  <circle cx="210" cy="390" r="10" fill="#5b8cff" />
  <rect x="485" y="220" width="365" height="180" rx="16" fill="#1f2c58" />
  <rect x="520" y="250" width="290" height="22" rx="11" fill="#6c9cff" />
  <rect x="520" y="288" width="225" height="22" rx="11" fill="#3b66b8" />
  <rect x="520" y="326" width="180" height="22" rx="11" fill="#586ac8" />
  <rect x="300" y="220" width="145" height="28" rx="14" fill="#e6e8ee" opacity="0.95" />
  <rect x="300" y="262" width="180" height="16" rx="8" fill="#a7b4d3" opacity="0.85" />
  <rect x="300" y="290" width="140" height="16" rx="8" fill="#a7b4d3" opacity="0.75" />
  <rect x="315" y="345" width="440" height="90" rx="18" fill="rgba(255,255,255,0.06)" />
  <rect x="135" y="560" width="930" height="45" rx="22" fill="#0f131f" />
  <path d="M285 620 C 330 585, 420 560, 470 605 L 730 605 C 760 560, 830 565, 870 620" fill="#071022" />
  <rect x="410" y="580" width="380" height="18" rx="9" fill="#2c3d7a" />
  <rect x="490" y="600" width="120" height="8" rx="4" fill="#6c9cff" />
  <g opacity="0.95">
    <rect x="680" y="560" width="160" height="12" rx="6" fill="#4e7de4" />
    <rect x="805" y="560" width="120" height="12" rx="6" fill="#6c9cff" />
  </g>
  <rect x="160" y="132" width="880" height="16" rx="8" fill="#071026" />
  <circle cx="450" cy="150" r="6" fill="#5b8cff" />
  <circle cx="478" cy="150" r="6" fill="#8bb6ff" />
  <circle cx="506" cy="150" r="6" fill="#5b8cff" />
  <text x="380" y="408" font-family="Segoe UI, Arial, sans-serif" font-size="58" fill="#e6e8ee" font-weight="700">NOVA</text>
  <text x="380" y="470" font-family="Segoe UI, Arial, sans-serif" font-size="36" fill="#6c9cff" font-weight="700">STORM X1</text>
</svg>
